<svg xmlns="http://www.w3.org/2000/svg" fill="none" viewBox="0 0 100 100"><path fill="#fff" d="M47.255 66.843c-9.216 0-13.726-5.294-13.726-11.96s6.275-15.099 15.49-15.099 13.726 5.294 13.726 11.961-6.274 15.098-15.49 15.098m.392-8.431c3.137 0 5.294-2.941 5.294-6.079s-1.569-3.921-4.314-3.921-5.294 2.94-5.294 6.078c0 3.137 1.569 3.922 4.314 3.922m24.902 7.843H62.94l7.843-35.686h9.608l-7.843 35.49z"/><path fill="#fff" fill-rule="evenodd" d="M18.824 66.843c-2.942 0-5.883-.98-7.452-3.333l-.588 2.745L0 71.94l1.176-5.686L9.02 30.569h9.607l-2.745 12.549c2.157-2.353 4.314-3.334 7.06-3.334 5.881 0 9.607 3.726 9.607 10.785 0 7.058-4.51 16.274-13.725 16.274m3.725-14.314c0 3.334-2.353 5.883-5.49 5.883s-3.334-.589-4.314-1.765l1.569-6.47c1.176-1.177 2.353-1.765 3.921-1.765 2.353 0 4.314 1.764 4.314 4.313z" clip-rule="evenodd"/><path fill="#fff" d="M90.392 66.843c-5.49 0-9.608-1.96-9.608-6.47s0-1.373.196-1.961l2.157-9.608h-4.314l1.961-8.235h4.314l1.569-7.06L97.45 29l-1.176 4.51-1.57 7.06H100l-1.96 8.235h-5.295l-1.373 6.274v1.177c0 1.176.785 2.157 2.353 2.157 1.57 0 1.177 0 1.373-.196v7.647c-.98.784-2.745.98-4.51.98z"/></svg>